<?xml version="1.0" encoding="UTF-8"?>
<svg xmlns="http://www.w3.org/2000/svg" version="1.1" viewBox="0 0 400 400">
  <defs>
    <style>
      .cls-1 {
        fill: red;
      }

      .cls-2 {
        fill: #c1272d;
      }
    </style>
  </defs>
  <!-- Generator: Adobe Illustrator 28.7.3, SVG Export Plug-In . SVG Version: 1.2.0 Build 164)  -->
  <g>
    <g id="Layer_1">
      <g>
        <path d="M200,399.5C90,399.5.5,310,.5,200S90,.5,200,.5s199.5,89.5,199.5,199.5-89.5,199.5-199.5,199.5Z"/>
        <path d="M200,1c26.9,0,52.9,5.3,77.5,15.6,23.7,10,45,24.4,63.3,42.6,18.3,18.3,32.6,39.6,42.6,63.3,10.4,24.5,15.6,50.6,15.6,77.5s-5.3,52.9-15.6,77.5c-10,23.7-24.4,45-42.6,63.3-18.3,18.3-39.6,32.6-63.3,42.6-24.5,10.4-50.6,15.6-77.5,15.6s-52.9-5.3-77.5-15.6c-23.7-10-45-24.4-63.3-42.6-18.3-18.3-32.6-39.6-42.6-63.3C6.3,252.9,1,226.9,1,200s5.3-52.9,15.6-77.5c10-23.7,24.4-45,42.6-63.3,18.3-18.3,39.6-32.6,63.3-42.6C147.1,6.3,173.1,1,200,1M200,0C89.5,0,0,89.5,0,200s89.5,200,200,200,200-89.5,200-200S310.5,0,200,0h0Z"/>
      </g>
      <g>
        <path class="cls-2" d="M200,356.5c-86.3,0-156.5-70.2-156.5-156.5S113.7,43.5,200,43.5s156.5,70.2,156.5,156.5-70.2,156.5-156.5,156.5Z"/>
        <path class="cls-2" d="M200,44c41.7,0,80.8,16.2,110.3,45.7,29.5,29.5,45.7,68.6,45.7,110.3s-16.2,80.8-45.7,110.3c-29.5,29.5-68.6,45.7-110.3,45.7s-80.8-16.2-110.3-45.7c-29.5-29.5-45.7-68.6-45.7-110.3s16.2-80.8,45.7-110.3c29.5-29.5,68.6-45.7,110.3-45.7M200,43c-86.7,0-157,70.3-157,157s70.3,157,157,157,157-70.3,157-157S286.7,43,200,43h0Z"/>
      </g>
      <g>
        <path class="cls-1" d="M200,334.5c-86.3,0-156.5-70.2-156.5-156.5S113.7,21.5,200,21.5s156.5,70.2,156.5,156.5-70.2,156.5-156.5,156.5Z"/>
        <path class="cls-1" d="M200,22c41.7,0,80.8,16.2,110.3,45.7,29.5,29.5,45.7,68.6,45.7,110.3s-16.2,80.8-45.7,110.3c-29.5,29.5-68.6,45.7-110.3,45.7s-80.8-16.2-110.3-45.7c-29.5-29.5-45.7-68.6-45.7-110.3s16.2-80.8,45.7-110.3c29.5-29.5,68.6-45.7,110.3-45.7M200,21c-86.7,0-157,70.3-157,157s70.3,157,157,157,157-70.3,157-157S286.7,21,200,21h0Z"/>
      </g>
    </g>
  </g>
</svg>