<?xml version="1.0" encoding="UTF-8"?>
<svg xmlns="http://www.w3.org/2000/svg" version="1.1" viewBox="0 0 595.3 841.9">
  <defs>
    <style>
      .cls-1 {
        fill: #00aeef;
      }

      .cls-1, .cls-2, .cls-3, .cls-4, .cls-5, .cls-6, .cls-7, .cls-8, .cls-9, .cls-10, .cls-11, .cls-12, .cls-13 {
        stroke-miterlimit: 10;
      }

      .cls-1, .cls-3, .cls-5, .cls-6, .cls-7, .cls-8, .cls-12, .cls-13 {
        stroke: #231f20;
      }

      .cls-2 {
        stroke-width: 5px;
      }

      .cls-2, .cls-11 {
        stroke: #8b5e3c;
      }

      .cls-2, .cls-12 {
        fill: #8b5e3c;
      }

      .cls-3 {
        fill: #fff;
      }

      .cls-4 {
        fill: #808285;
        stroke: #808285;
      }

      .cls-5 {
        stroke-width: .2px;
      }

      .cls-5, .cls-7, .cls-11 {
        fill: none;
      }

      .cls-6, .cls-9 {
        fill: #939598;
      }

      .cls-8 {
        fill: #ed1c24;
      }

      .cls-9 {
        stroke: #939598;
      }

      .cls-10 {
        fill: #be1e2d;
        stroke: #be1e2d;
      }

      .cls-11 {
        stroke-width: 3px;
      }

      .cls-13 {
        fill: #754c29;
      }
    </style>
  </defs>
  <!-- Generator: Adobe Illustrator 28.7.3, SVG Export Plug-In . SVG Version: 1.2.0 Build 164)  -->
  <g>
    <g id="Layer_1">
      <rect class="cls-13" x="655.1" y="1172.2" width="236" height="17"/>
      <rect class="cls-13" x="763.1" y="1193.1" width="20.1" height="123.5"/>
      <rect class="cls-1" x="757.2" y="1300.6" width="31.9" height="31.9" transform="translate(-704.5 932.3) rotate(-45)"/>
      <polygon class="cls-6" points="800.6 887.7 800.6 1180.7 745.7 1180.7 745.7 887.7 746.4 887.7 745.9 887.2 773.1 860 800.4 887.2 799.9 887.7 800.6 887.7"/>
      <rect class="cls-8" x="752.3" y="1159.9" width="41.6" height="41.6" transform="translate(-608.5 892.5) rotate(-45)"/>
      <rect class="cls-1" x="639.4" y="1170.3" width="20.9" height="20.9" transform="translate(-644.6 805.3) rotate(-45)"/>
      <rect class="cls-1" x="884" y="1169.7" width="22" height="22" transform="translate(-572.8 978.7) rotate(-45)"/>
      <line class="cls-7" x1="773.1" y1="1150.9" x2="773.1" y2="906.7"/>
      <line class="cls-7" x1="746.4" y1="887.7" x2="773.1" y2="906.7"/>
      <line class="cls-7" x1="799.9" y1="887.7" x2="773.1" y2="906.7"/>
      <path class="cls-6" d="M-267.5-201.1c15.3-2.2,35-6.5,56.7-15.3,18.9-7.7,34.3-16.7,45.9-24.7,10.4,7.5,23.7,15.6,39.8,22.7,25.5,11.2,48.8,15.6,65.9,17.4-4.2,23.1-13.8,59.2-37.3,97.8-22.5,37-48.8,61.4-66.9,75.8-17.6-12.6-45.7-36.2-69-74.2-24.4-40-32.3-77.6-35.2-99.4Z"/>
      <path class="cls-12" d="M-255.2-194.2c13.5-1.9,30.9-5.8,50-13.5,16.7-6.8,30.2-14.7,40.5-21.8,9.2,6.6,20.9,13.8,35.2,20,22.5,9.9,43.1,13.7,58.1,15.3-3.7,20.4-12.2,52.3-32.9,86.3-19.9,32.6-43.1,54.2-59,66.9-15.5-11.1-40.3-31.9-60.8-65.5-21.6-35.3-28.5-68.5-31.1-87.7Z"/>
      <line class="cls-7" x1="-163.3" y1="-41" x2="-164.7" y2="-229.5"/>
      <line class="cls-7" x1="-140.7" y1="-61.3" x2="-142" y2="-215.5"/>
      <line class="cls-7" x1="-186.1" y1="-59.7" x2="-188.5" y2="-215.4"/>
      <line class="cls-7" x1="-115.2" y1="-91.5" x2="-117.1" y2="-204.6"/>
      <line class="cls-7" x1="-93" y1="-128.6" x2="-94.9" y2="-198.1"/>
      <line class="cls-7" x1="-238.2" y1="-197.4" x2="-237.2" y2="-131.2"/>
      <line class="cls-7" x1="-214.2" y1="-91.6" x2="-211.4" y2="-205.4"/>
      <circle class="cls-4" cx="765.9" cy="25.9" r="2.2"/>
      <circle class="cls-4" cx="-242" cy="-183.5" r="2.2"/>
      <circle class="cls-4" cx="-90.6" cy="-183.5" r="2.2"/>
      <circle class="cls-4" cx="-163.4" cy="-53.5" r="2.2"/>
      <path class="cls-2" d="M363.7,119c-7.9,4.1-175.7,95.5-185.6,286.1-6.8,130.3,62.9,254.3,178.8,318.5-116-64.2-185.6-188.2-178.8-318.5,10-190.6,177.8-282,185.6-286.1Z"/>
      <line class="cls-3" x1="363.7" y1="119" x2="567" y2="421.3"/>
      <line class="cls-3" x1="356.9" y1="723.6" x2="567" y2="421.3"/>
      <path class="cls-10" d="M541.8,418.6c3.7-3.5,11.8-10.3,24.1-13.8,12.7-3.6,23.3-1.9,28.3-.7-7.5,1.4-13.1,7.7-13.6,15-.6,8.1,5.2,15.7,13.6,17.3-5.3,1.2-14.9,2.6-26.5,0-13.1-2.9-21.9-9.4-26.1-13,0-1.6.1-3.2.2-4.8Z"/>
      <path class="cls-5" d="M547.3,418c3.2-3,9.2-7.8,17.9-10.7,10.5-3.6,19.7-2.8,24.2-2"/>
      <path class="cls-5" d="M553.1,418c2.8-2.3,7.6-5.5,14.3-7.6,6.3-2,11.8-2.1,15.3-2"/>
      <path class="cls-5" d="M560.3,418.3c2.1-1.2,4.8-2.6,8.2-3.6,4.2-1.3,8-1.7,10.8-1.7"/>
      <path class="cls-5" d="M579,429.4c-2.4,0-5.5-.3-8.9-1.1-4.3-1-7.7-2.7-10.1-4"/>
      <path class="cls-5" d="M582.2,432.8c-3.6.3-9.4.2-16.1-1.8-6.3-1.9-10.9-4.9-13.8-7"/>
      <path class="cls-5" d="M589.1,435.8c-4.3.8-11.9,1.6-20.9-.6-10.8-2.6-18.1-8.3-21.5-11.3"/>
      <path class="cls-11" d="M567,421.3c-179.3-2.5-361.6-6.9-541.3-7.6"/>
      <polygon class="cls-9" points="48.1 388.5 46.8 439 3.3 413.4 48.1 388.5"/>
    </g>
  </g>
</svg>