<?xml version="1.0" encoding="UTF-8"?>
<svg xmlns="http://www.w3.org/2000/svg" version="1.1" viewBox="0 0 595.3 841.9">
  <defs>
    <style>
      .cls-1 {
        fill: #00aeef;
      }

      .cls-1, .cls-2, .cls-3, .cls-4, .cls-5, .cls-6, .cls-7, .cls-8, .cls-9, .cls-10, .cls-11, .cls-12, .cls-13 {
        stroke-miterlimit: 10;
      }

      .cls-1, .cls-3, .cls-5, .cls-6, .cls-7, .cls-8, .cls-12, .cls-13 {
        stroke: #231f20;
      }

      .cls-2 {
        stroke-width: 5px;
      }

      .cls-2, .cls-11 {
        stroke: #8b5e3c;
      }

      .cls-2, .cls-12 {
        fill: #8b5e3c;
      }

      .cls-3 {
        fill: #fff;
      }

      .cls-4 {
        fill: #808285;
        stroke: #808285;
      }

      .cls-5 {
        stroke-width: .2px;
      }

      .cls-5, .cls-7, .cls-11 {
        fill: none;
      }

      .cls-6, .cls-9 {
        fill: #939598;
      }

      .cls-8 {
        fill: #ed1c24;
      }

      .cls-9 {
        stroke: #939598;
      }

      .cls-10 {
        fill: #be1e2d;
        stroke: #be1e2d;
      }

      .cls-11 {
        stroke-width: 3px;
      }

      .cls-13 {
        fill: #754c29;
      }
    </style>
  </defs>
  <!-- Generator: Adobe Illustrator 28.7.3, SVG Export Plug-In . SVG Version: 1.2.0 Build 164)  -->
  <g>
    <g id="Layer_1">
      <rect class="cls-13" x="561.9" y="1157.1" width="236" height="17"/>
      <rect class="cls-13" x="669.9" y="1177.9" width="20.1" height="123.5"/>
      <rect class="cls-1" x="664" y="1285.5" width="31.9" height="31.9" transform="translate(-721.1 862) rotate(-45)"/>
      <polygon class="cls-6" points="707.4 872.6 707.4 1165.6 652.5 1165.6 652.5 872.6 653.2 872.6 652.7 872.1 679.9 844.8 707.2 872.1 706.7 872.6 707.4 872.6"/>
      <rect class="cls-8" x="659.1" y="1144.8" width="41.6" height="41.6" transform="translate(-625 822.2) rotate(-45)"/>
      <rect class="cls-1" x="546.2" y="1155.1" width="20.9" height="20.9" transform="translate(-661.1 735) rotate(-45)"/>
      <rect class="cls-1" x="790.8" y="1154.6" width="22" height="22" transform="translate(-589.3 908.3) rotate(-45)"/>
      <line class="cls-7" x1="679.9" y1="1135.8" x2="679.9" y2="891.5"/>
      <line class="cls-7" x1="653.2" y1="872.6" x2="679.9" y2="891.5"/>
      <line class="cls-7" x1="706.7" y1="872.6" x2="679.9" y2="891.5"/>
      <path class="cls-6" d="M0,241c43.8-6.3,100-18.6,162-43.8,54.1-22,97.9-47.7,131.3-70.6,29.8,21.3,67.7,44.5,113.9,64.8,72.9,31.9,139.5,44.5,188.3,49.6-12.1,66-39.4,169.3-106.6,279.6-64.4,105.7-139.6,175.6-191.1,216.5-50.2-36.1-130.6-103.4-197.1-212.2C30.8,410.9,8.2,303.3,0,241Z"/>
      <path class="cls-12" d="M34.9,260.9c38.6-5.5,88.2-16.4,142.9-38.6,47.7-19.4,86.4-42.1,115.9-62.3,26.3,18.8,59.7,39.3,100.5,57.2,64.4,28.2,123.1,39.3,166.1,43.8-10.7,58.2-34.8,149.4-94,246.8-56.8,93.3-123.2,154.9-168.7,191.1-44.3-31.8-115.2-91.3-173.9-187.2-61.6-100.8-81.5-195.7-88.8-250.6Z"/>
      <line class="cls-7" x1="297.6" y1="698.7" x2="293.7" y2="159.9"/>
      <line class="cls-7" x1="362.2" y1="640.8" x2="358.7" y2="200"/>
      <line class="cls-7" x1="232.7" y1="645.3" x2="225.7" y2="200.4"/>
      <line class="cls-7" x1="435.2" y1="554.5" x2="429.8" y2="231.2"/>
      <line class="cls-7" x1="498.7" y1="448.3" x2="493.1" y2="249.7"/>
      <line class="cls-7" x1="83.8" y1="251.8" x2="86.4" y2="440.9"/>
      <line class="cls-7" x1="152.2" y1="554.1" x2="160.3" y2="229"/>
      <circle class="cls-4" cx="765.9" cy="25.9" r="2.2"/>
      <circle class="cls-4" cx="72.8" cy="291.6" r="6.2"/>
      <circle class="cls-4" cx="505.6" cy="291.6" r="6.2"/>
      <circle class="cls-4" cx="297.4" cy="663" r="6.2"/>
      <path class="cls-2" d="M-201.4,885.1c-3.5,1.8-79,42.9-83.5,128.7-3.1,58.6,28.3,114.4,80.4,143.2-52.2-28.9-83.5-84.6-80.4-143.2,4.5-85.7,80-126.8,83.5-128.7Z"/>
      <line class="cls-3" x1="-201.4" y1="885.1" x2="-110" y2="1021.1"/>
      <line class="cls-3" x1="-204.4" y1="1157" x2="-110" y2="1021.1"/>
      <path class="cls-10" d="M-121.3,1019.8c1.7-1.6,5.3-4.6,10.9-6.2,5.7-1.6,10.5-.8,12.7-.3-3.4.6-5.9,3.5-6.1,6.7-.3,3.6,2.4,7,6.1,7.8-2.4.5-6.7,1.2-11.9,0-5.9-1.3-9.8-4.2-11.7-5.8,0-.7,0-1.4,0-2.2Z"/>
      <path class="cls-5" d="M-118.8,1019.6c1.5-1.4,4.1-3.5,8-4.8,4.7-1.6,8.8-1.2,10.9-.9"/>
      <path class="cls-5" d="M-116.2,1019.6c1.3-1,3.4-2.5,6.4-3.4,2.8-.9,5.3-1,6.9-.9"/>
      <path class="cls-5" d="M-113,1019.7c.9-.5,2.2-1.2,3.7-1.6,1.9-.6,3.6-.7,4.9-.8"/>
      <path class="cls-5" d="M-104.5,1024.7c-1.1,0-2.5-.1-4-.5-1.9-.5-3.5-1.2-4.6-1.8"/>
      <path class="cls-5" d="M-103.1,1026.2c-1.6.1-4.2,0-7.2-.8-2.8-.9-4.9-2.2-6.2-3.2"/>
      <path class="cls-5" d="M-100,1027.6c-2,.4-5.4.7-9.4-.3-4.9-1.2-8.1-3.7-9.7-5.1"/>
      <path class="cls-11" d="M-110,1021.1c-80.6-1.1-162.6-3.1-243.4-3.4"/>
      <polygon class="cls-9" points="-343.3 1006.3 -343.9 1029 -363.5 1017.5 -343.3 1006.3"/>
    </g>
  </g>
</svg>