<?xml version="1.0" encoding="UTF-8"?>
<svg xmlns="http://www.w3.org/2000/svg" version="1.1" viewBox="0 0 595.3 841.9">
  <defs>
    <style>
      .cls-1 {
        fill: #00aeef;
      }

      .cls-1, .cls-2, .cls-3, .cls-4, .cls-5, .cls-6, .cls-7, .cls-8, .cls-9, .cls-10, .cls-11, .cls-12, .cls-13 {
        stroke-miterlimit: 10;
      }

      .cls-1, .cls-3, .cls-5, .cls-6, .cls-7, .cls-8, .cls-12, .cls-13 {
        stroke: #231f20;
      }

      .cls-2 {
        stroke-width: 5px;
      }

      .cls-2, .cls-11 {
        stroke: #8b5e3c;
      }

      .cls-2, .cls-12 {
        fill: #8b5e3c;
      }

      .cls-3 {
        fill: #fff;
      }

      .cls-4 {
        fill: #808285;
        stroke: #808285;
      }

      .cls-5 {
        stroke-width: .2px;
      }

      .cls-5, .cls-7, .cls-11 {
        fill: none;
      }

      .cls-6, .cls-9 {
        fill: #939598;
      }

      .cls-8 {
        fill: #ed1c24;
      }

      .cls-9 {
        stroke: #939598;
      }

      .cls-10 {
        fill: #be1e2d;
        stroke: #be1e2d;
      }

      .cls-11 {
        stroke-width: 3px;
      }

      .cls-13 {
        fill: #754c29;
      }
    </style>
  </defs>
  <!-- Generator: Adobe Illustrator 28.7.3, SVG Export Plug-In . SVG Version: 1.2.0 Build 164)  -->
  <g>
    <g id="Layer_1">
      <rect class="cls-13" x="103.6" y="543.7" width="398.7" height="28.7"/>
      <rect class="cls-13" x="286" y="578.9" width="33.9" height="208.6"/>
      <rect class="cls-1" x="276" y="760.6" width="53.9" height="53.9" transform="translate(-468.1 444.9) rotate(-45)"/>
      <polygon class="cls-6" points="349.4 63.1 349.4 558.1 256.6 558.1 256.6 63.1 257.8 63.1 257 62.3 303 16.3 349 62.3 348.1 63.1 349.4 63.1"/>
      <rect class="cls-8" x="267.8" y="522.9" width="70.3" height="70.3" transform="translate(-305.9 377.7) rotate(-45)"/>
      <rect class="cls-1" x="77" y="540.4" width="35.4" height="35.4" transform="translate(-366.9 230.4) rotate(-45)"/>
      <rect class="cls-1" x="490.2" y="539.5" width="37.1" height="37.1" transform="translate(-245.6 523.2) rotate(-45)"/>
      <line class="cls-7" x1="303" y1="507.7" x2="303" y2="95.1"/>
      <line class="cls-7" x1="257.8" y1="63.1" x2="303" y2="95.1"/>
      <line class="cls-7" x1="348.1" y1="63.1" x2="303" y2="95.1"/>
      <path class="cls-6" d="M662.9-185.6c15.3-2.2,35-6.5,56.7-15.3,18.9-7.7,34.3-16.7,45.9-24.7,10.4,7.5,23.7,15.6,39.8,22.7,25.5,11.2,48.8,15.6,65.9,17.4-4.2,23.1-13.8,59.2-37.3,97.8-22.5,37-48.8,61.4-66.9,75.8-17.6-12.6-45.7-36.2-69-74.2-24.4-40-32.3-77.6-35.2-99.4Z"/>
      <path class="cls-12" d="M675.2-178.6c13.5-1.9,30.9-5.8,50-13.5,16.7-6.8,30.2-14.7,40.5-21.8,9.2,6.6,20.9,13.8,35.2,20,22.5,9.9,43.1,13.7,58.1,15.3-3.7,20.4-12.2,52.3-32.9,86.3-19.9,32.6-43.1,54.2-59,66.9-15.5-11.1-40.3-31.9-60.8-65.5-21.6-35.3-28.5-68.5-31.1-87.7Z"/>
      <line class="cls-7" x1="767.1" y1="-25.4" x2="765.8" y2="-214"/>
      <line class="cls-7" x1="789.7" y1="-45.7" x2="788.5" y2="-199.9"/>
      <line class="cls-7" x1="744.4" y1="-44.1" x2="742" y2="-199.8"/>
      <line class="cls-7" x1="815.2" y1="-75.9" x2="813.4" y2="-189"/>
      <line class="cls-7" x1="837.5" y1="-113.1" x2="835.5" y2="-182.6"/>
      <line class="cls-7" x1="692.3" y1="-181.8" x2="693.2" y2="-115.7"/>
      <line class="cls-7" x1="716.2" y1="-76" x2="719.1" y2="-189.8"/>
      <circle class="cls-4" cx="765.9" cy="25.9" r="2.2"/>
      <circle class="cls-4" cx="688.5" cy="-167.9" r="2.2"/>
      <circle class="cls-4" cx="839.9" cy="-167.9" r="2.2"/>
      <circle class="cls-4" cx="767" cy="-37.9" r="2.2"/>
      <path class="cls-2" d="M-201.4,885.1c-3.5,1.8-79,42.9-83.5,128.7-3.1,58.6,28.3,114.4,80.4,143.2-52.2-28.9-83.5-84.6-80.4-143.2,4.5-85.7,80-126.8,83.5-128.7Z"/>
      <line class="cls-3" x1="-201.4" y1="885.1" x2="-110" y2="1021.1"/>
      <line class="cls-3" x1="-204.4" y1="1157" x2="-110" y2="1021.1"/>
      <path class="cls-10" d="M-121.3,1019.8c1.7-1.6,5.3-4.6,10.9-6.2,5.7-1.6,10.5-.8,12.7-.3-3.4.6-5.9,3.5-6.1,6.7-.3,3.6,2.4,7,6.1,7.8-2.4.5-6.7,1.2-11.9,0-5.9-1.3-9.8-4.2-11.7-5.8,0-.7,0-1.4,0-2.2Z"/>
      <path class="cls-5" d="M-118.8,1019.6c1.5-1.4,4.1-3.5,8-4.8,4.7-1.6,8.8-1.2,10.9-.9"/>
      <path class="cls-5" d="M-116.2,1019.6c1.3-1,3.4-2.5,6.4-3.4,2.8-.9,5.3-1,6.9-.9"/>
      <path class="cls-5" d="M-113,1019.7c.9-.5,2.2-1.2,3.7-1.6,1.9-.6,3.6-.7,4.9-.8"/>
      <path class="cls-5" d="M-104.5,1024.7c-1.1,0-2.5-.1-4-.5-1.9-.5-3.5-1.2-4.6-1.8"/>
      <path class="cls-5" d="M-103.1,1026.2c-1.6.1-4.2,0-7.2-.8-2.8-.9-4.9-2.2-6.2-3.2"/>
      <path class="cls-5" d="M-100,1027.6c-2,.4-5.4.7-9.4-.3-4.9-1.2-8.1-3.7-9.7-5.1"/>
      <path class="cls-11" d="M-110,1021.1c-80.6-1.1-162.6-3.1-243.4-3.4"/>
      <polygon class="cls-9" points="-343.3 1006.3 -343.9 1029 -363.5 1017.5 -343.3 1006.3"/>
    </g>
  </g>
</svg>